<svg width="200" height="200" viewBox="0 0 200 200" fill="none" xmlns="http://www.w3.org/2000/svg">
<path d="M184.043 168.085H182.979V9.57461C182.979 4.29531 178.684 0 173.404 0C168.125 0 163.83 4.29531 163.83 9.57461V22.3406H157.043C155.622 16.8406 150.618 12.766 144.681 12.766C140.871 12.766 137.448 14.4461 135.106 17.102C132.765 14.4461 129.342 12.766 125.532 12.766C119.594 12.766 114.59 16.8406 113.17 22.3406H105.979C104.558 16.8406 99.5543 12.766 93.6168 12.766C89.8066 12.766 86.3836 14.4461 84.0422 17.102C81.7008 14.4461 78.2781 12.766 74.4676 12.766C70.657 12.766 67.2344 14.4461 64.893 17.102C62.5516 14.4461 59.1285 12.766 55.3184 12.766C49.3809 12.766 44.377 16.8406 42.9563 22.3406H36.1703V9.57461C36.1703 4.29531 31.8754 0 26.5957 0C21.316 0 17.0211 4.29531 17.0211 9.57461V168.085H15.9574C7.1582 168.085 0 175.243 0 184.043V196.809C0 198.571 1.42891 200 3.19141 200H196.809C198.571 200 200 198.571 200 196.809V184.043C200 175.243 192.842 168.085 184.043 168.085ZM157.447 28.7234H163.83V35.1063H157.447V28.7234ZM138.298 25.532C138.298 22.0125 141.161 19.1492 144.681 19.1492C148.2 19.1492 151.064 22.0125 151.064 25.532V38.298C151.064 41.8176 148.2 44.6809 144.681 44.6809C141.161 44.6809 138.298 41.8176 138.298 38.298V25.532ZM119.149 25.532C119.149 22.0125 122.012 19.1492 125.532 19.1492C129.051 19.1492 131.914 22.0125 131.914 25.532V38.298C131.914 41.8176 129.051 44.6809 125.532 44.6809C122.012 44.6809 119.149 41.8176 119.149 38.298V25.532ZM106.383 28.7234H112.766V35.1063H106.383V28.7234ZM87.234 25.532C87.234 22.0125 90.0973 19.1492 93.6168 19.1492C97.1363 19.1492 99.9996 22.0125 99.9996 25.532V38.298C99.9996 41.8176 97.1363 44.6809 93.6168 44.6809C90.0973 44.6809 87.234 41.8176 87.234 38.298V25.532ZM68.0852 25.532C68.0852 22.0125 70.9484 19.1492 74.468 19.1492C77.9875 19.1492 80.8508 22.0125 80.8508 25.532V38.298C80.8508 41.8176 77.9875 44.6809 74.468 44.6809C70.9484 44.6809 68.0852 41.8176 68.0852 38.298V25.532ZM48.9363 25.532C48.9363 22.0125 51.7996 19.1492 55.3191 19.1492C58.8387 19.1492 61.702 22.0125 61.702 25.532V38.298C61.702 41.8176 58.8387 44.6809 55.3191 44.6809C51.7996 44.6809 48.9363 41.8176 48.9363 38.298V25.532ZM36.1703 28.7234H42.5531V35.1063H36.1703V28.7234ZM36.1703 41.4895H42.957C44.3777 46.9895 49.3816 51.0641 55.3191 51.0641C59.1293 51.0641 62.5523 49.384 64.8938 46.7285C67.2352 49.3844 70.6578 51.0641 74.4684 51.0641C78.2789 51.0641 81.7016 49.384 84.043 46.7285C86.3844 49.3844 89.8074 51.0641 93.6176 51.0641C99.5551 51.0641 104.559 46.9895 105.98 41.4895H113.171C114.591 46.9895 119.595 51.0641 125.532 51.0641C129.343 51.0641 132.766 49.384 135.107 46.7285C137.448 49.3844 140.871 51.0641 144.682 51.0641C150.619 51.0641 155.623 46.9895 157.044 41.4895H163.83V71.2766H157.043C155.622 65.7766 150.618 61.702 144.681 61.702C140.871 61.702 137.448 63.382 135.106 66.0375C132.765 63.3816 129.342 61.702 125.532 61.702C121.721 61.702 118.298 63.382 115.957 66.0375C113.616 63.3816 110.193 61.702 106.382 61.702C102.572 61.702 99.1492 63.382 96.8078 66.0375C94.4664 63.3816 91.0438 61.702 87.2332 61.702C81.2957 61.702 76.2918 65.7766 74.8711 71.2766H67.6801C66.2598 65.7766 61.2559 61.702 55.3184 61.702C49.3809 61.702 44.377 65.7766 42.9563 71.2766H36.1703V41.4895ZM163.83 77.6598V84.0426H157.447V77.6598H163.83ZM151.064 74.468V87.234C151.064 90.7535 148.2 93.6168 144.681 93.6168C141.161 93.6168 138.298 90.7535 138.298 87.234V74.468C138.298 70.9484 141.161 68.0852 144.681 68.0852C148.2 68.0852 151.064 70.9484 151.064 74.468ZM131.915 74.468V87.234C131.915 90.7535 129.052 93.6168 125.532 93.6168C122.012 93.6168 119.149 90.7535 119.149 87.234V74.468C119.149 70.9484 122.012 68.0852 125.532 68.0852C129.052 68.0852 131.915 70.9484 131.915 74.468ZM112.766 74.468V87.234C112.766 90.7535 109.903 93.6168 106.383 93.6168C102.864 93.6168 100 90.7535 100 87.234V74.468C100 70.9484 102.864 68.0852 106.383 68.0852C109.903 68.0852 112.766 70.9484 112.766 74.468ZM93.6172 74.468V87.234C93.6172 90.7535 90.7539 93.6168 87.2344 93.6168C83.7148 93.6168 80.8516 90.7535 80.8516 87.234V74.468C80.8516 70.9484 83.7148 68.0852 87.2344 68.0852C90.7539 68.0852 93.6172 70.9484 93.6172 74.468ZM74.468 77.6598V84.0426H68.0852V77.6598H74.468ZM61.702 74.468V87.234C61.702 90.7535 58.8387 93.6168 55.3191 93.6168C51.7996 93.6168 48.9363 90.7535 48.9363 87.234V74.468C48.9363 70.9484 51.7996 68.0852 55.3191 68.0852C58.8387 68.0852 61.702 70.9484 61.702 74.468ZM36.1703 77.6598H42.5531V84.0426H36.1703V77.6598ZM36.1703 90.4254H42.957C44.3777 95.9254 49.3816 100 55.3191 100C61.2566 100 66.2605 95.9254 67.6813 90.4254H74.8723C76.2926 95.9254 81.2965 100 87.234 100C91.0441 100 94.4672 98.3199 96.8086 95.6645C99.1496 98.3199 102.573 100 106.383 100C110.193 100 113.616 98.3199 115.957 95.6645C118.299 98.3203 121.721 100 125.532 100C129.343 100 132.765 98.3199 135.107 95.6645C137.448 98.3203 140.871 100 144.681 100C150.619 100 155.623 95.9254 157.043 90.4254H163.83V120.212H157.043C155.622 114.712 150.618 110.638 144.681 110.638C140.871 110.638 137.448 112.318 135.106 114.973C132.765 112.318 129.342 110.638 125.532 110.638C121.721 110.638 118.298 112.318 115.957 114.973C113.616 112.318 110.193 110.638 106.382 110.638C100.445 110.638 95.441 114.712 94.0203 120.212H86.8293C85.409 114.712 80.4051 110.638 74.4676 110.638C70.6574 110.638 67.2344 112.318 64.893 114.973C62.5516 112.318 59.1285 110.638 55.3184 110.638C49.3809 110.638 44.377 114.712 42.9563 120.212H36.1703V90.4254ZM163.83 126.596V132.979H157.447V126.596H163.83ZM151.064 123.404V136.17C151.064 139.69 148.2 142.553 144.681 142.553C141.161 142.553 138.298 139.69 138.298 136.17V123.404C138.298 119.885 141.161 117.021 144.681 117.021C148.2 117.021 151.064 119.885 151.064 123.404ZM131.915 123.404V136.17C131.915 139.69 129.052 142.553 125.532 142.553C122.012 142.553 119.149 139.69 119.149 136.17V123.404C119.149 119.885 122.012 117.021 125.532 117.021C129.052 117.021 131.915 119.885 131.915 123.404ZM112.766 123.404V136.17C112.766 139.69 109.903 142.553 106.383 142.553C102.864 142.553 100 139.69 100 136.17V123.404C100 119.885 102.864 117.021 106.383 117.021C109.903 117.021 112.766 119.885 112.766 123.404ZM93.6172 126.596V132.979H87.2344V126.596H93.6172ZM80.8512 123.404V136.17C80.8512 139.69 77.9879 142.553 74.4684 142.553C70.9488 142.553 68.0855 139.69 68.0855 136.17V123.404C68.0855 119.885 70.9488 117.021 74.4684 117.021C77.9879 117.021 80.8512 119.885 80.8512 123.404ZM61.702 123.404V136.17C61.702 139.69 58.8387 142.553 55.3191 142.553C51.7996 142.553 48.9363 139.69 48.9363 136.17V123.404C48.9363 119.885 51.7996 117.021 55.3191 117.021C58.8387 117.021 61.702 119.885 61.702 123.404ZM36.1703 126.596H42.5531V132.979H36.1703V126.596ZM23.4043 9.57461C23.4043 7.81445 24.8359 6.3832 26.5957 6.3832C28.3559 6.3832 29.7871 7.81484 29.7871 9.57461V158.511C29.7871 160.274 31.216 161.702 32.9785 161.702C34.741 161.702 36.1699 160.274 36.1699 158.511V139.362H42.9566C44.3773 144.862 49.3812 148.937 55.3187 148.937C59.1289 148.937 62.552 147.257 64.8934 144.601C67.2348 147.257 70.6574 148.937 74.468 148.937C80.4055 148.937 85.4094 144.862 86.8301 139.362H94.0211C95.4414 144.862 100.445 148.937 106.383 148.937C110.193 148.937 113.616 147.257 115.957 144.601C118.299 147.257 121.721 148.937 125.532 148.937C129.343 148.937 132.765 147.257 135.107 144.601C137.448 147.257 140.871 148.937 144.681 148.937C150.619 148.937 155.623 144.862 157.043 139.362H163.83V158.511C163.83 160.274 165.259 161.702 167.021 161.702C168.784 161.702 170.213 160.274 170.213 158.511V9.57461C170.213 7.81445 171.645 6.3832 173.404 6.3832C175.164 6.3832 176.596 7.81484 176.596 9.57461V168.085H23.4043V9.57461ZM193.617 193.617H6.38281V184.043C6.38281 178.763 10.6777 174.468 15.9574 174.468H184.043C189.322 174.468 193.617 178.763 193.617 184.043V193.617Z" fill="#FDF49F"/>
</svg>
