<svg width="200" height="200" viewBox="0 0 200 200" fill="none" xmlns="http://www.w3.org/2000/svg">
<path d="M155.846 157.897C148.744 144.752 137.112 129.864 118.174 121.4C107.344 129.289 94.1863 133.934 80.0019 133.934C65.8097 133.934 52.6522 129.29 41.8212 121.4C22.8845 129.864 11.2521 144.753 4.15407 157.897C-5.26627 175.331 2.11949 200 18.4116 200C34.7041 200 80.0023 200 80.0023 200C80.0023 200 125.296 200 141.589 200C157.881 200 165.266 175.331 155.846 157.897Z" fill="#7DA732"/>
<path d="M80.0019 117.438C107.819 117.438 130.362 93.9582 130.362 64.9996V52.4379C130.362 23.4797 107.819 0 80.0019 0C52.1806 0 29.6335 23.4797 29.6335 52.4383V65C29.6335 93.9582 52.181 117.438 80.0019 117.438Z" fill="#7DA732"/>
<path d="M158 12.1921C158 22.3231 166.374 27.7219 172.504 32.5541C174.667 34.2594 176.75 35.8648 178.833 35.8648C180.917 35.8648 183 34.2594 185.163 32.5541C191.293 27.7219 199.667 22.3231 199.667 12.1921C199.667 2.06094 188.208 -5.12385 178.833 4.61608C169.459 -5.12385 158 2.06094 158 12.1921Z" fill="#7DA732"/>
</svg>
