<svg width="200" height="200" viewBox="0 0 200 200" fill="none" xmlns="http://www.w3.org/2000/svg">
<path d="M155.846 157.897C148.744 144.752 137.112 129.864 118.174 121.4C107.344 129.289 94.1863 133.934 80.0019 133.934C65.8097 133.934 52.6522 129.29 41.8212 121.4C22.8845 129.864 11.2521 144.753 4.15407 157.897C-5.26627 175.331 2.11949 200 18.4116 200C34.7041 200 80.0023 200 80.0023 200C80.0023 200 125.296 200 141.589 200C157.881 200 165.266 175.331 155.846 157.897Z" fill="#DA9834"/>
<path d="M80.0019 117.438C107.819 117.438 130.362 93.9582 130.362 64.9996V52.4379C130.362 23.4797 107.819 0 80.0019 0C52.1806 0 29.6335 23.4797 29.6335 52.4383V65C29.6335 93.9582 52.181 117.438 80.0019 117.438Z" fill="#DA9834"/>
<path d="M188.593 40.9091C188.599 42.4105 188.173 43.8847 187.36 45.1702C186.547 46.4557 185.378 47.5029 183.983 48.1973C182.588 48.8916 181.019 49.2063 179.449 49.1068C177.879 49.0073 176.368 48.4975 175.081 47.6332C173.794 46.7689 172.781 45.5834 172.154 44.2066C171.526 42.8298 171.307 41.3147 171.522 39.8273C171.737 38.3399 172.376 36.9375 173.37 35.7737C174.364 34.6099 175.675 33.7296 177.159 33.2291V10.9091C177.159 10.1858 177.46 9.49208 177.996 8.98062C178.532 8.46915 179.259 8.18182 180.017 8.18182C180.775 8.18182 181.502 8.46915 182.039 8.98062C182.575 9.49208 182.876 10.1858 182.876 10.9091V33.2291C184.544 33.7877 185.99 34.8263 187.014 36.2018C188.038 37.5773 188.59 39.222 188.593 40.9091ZM191.451 10.9091V25.26C194.942 27.5873 197.564 30.9165 198.935 34.7635C200.306 38.6104 200.355 42.7743 199.074 46.6495C197.793 50.5247 195.25 53.909 191.815 56.3101C188.379 58.7112 184.23 60.0038 179.972 60C179.182 59.9988 178.392 59.9542 177.608 59.8664C173.309 59.3405 169.301 57.5096 166.177 54.644C163.052 51.7785 160.977 48.0301 160.256 43.9527C159.655 40.4044 160.117 36.7661 161.591 33.4579C163.064 30.1498 165.488 27.3068 168.583 25.2573V10.9091C168.583 8.01582 169.788 5.24105 171.932 3.1952C174.077 1.14935 176.985 0 180.017 0C183.05 0 185.958 1.14935 188.102 3.1952C190.247 5.24105 191.451 8.01582 191.451 10.9091ZM187.164 29.1136C186.729 28.8745 186.369 28.5307 186.118 28.1166C185.867 27.7025 185.735 27.2328 185.734 26.7545V10.9091C185.734 9.46245 185.132 8.07507 184.06 7.05214C182.988 6.02922 181.534 5.45454 180.017 5.45454C178.501 5.45454 177.047 6.02922 175.975 7.05214C174.903 8.07507 174.3 9.46245 174.3 10.9091V26.7545C174.3 27.2328 174.167 27.7025 173.917 28.1166C173.666 28.5307 173.305 28.8745 172.871 29.1136C170.146 30.6145 168.017 32.9313 166.813 35.7047C165.609 38.478 165.397 41.5529 166.212 44.4524C167.026 47.352 168.82 49.9141 171.317 51.7415C173.813 53.5689 176.871 54.5594 180.017 54.5594C183.164 54.5594 186.222 53.5689 188.718 51.7415C191.214 49.9141 193.009 47.352 193.823 44.4524C194.637 41.5529 194.426 38.478 193.222 35.7047C192.018 32.9313 189.888 30.6145 187.164 29.1136Z" fill="#DA9834"/>
</svg>
