<svg width="192" height="200" viewBox="0 0 192 200" fill="none" xmlns="http://www.w3.org/2000/svg">
<path d="M167.06 28.9367C149.293 10.5469 123.389 0 95.9969 0C68.6105 0 42.707 10.5469 24.9461 28.9309C8.34453 46.1184 -0.32852 69.098 0.519917 93.6527L3.10156 126.416C5.45742 159.522 24.6773 163.098 32.8258 163.098C35.7801 163.098 38.8926 162.671 42.0543 161.853C42.4816 164.954 42.4449 170.392 42.4144 174.622L42.384 180.506C42.3289 184.779 42.2437 191.248 46.7723 195.832C48.6461 197.736 52.0703 200 57.7098 200H134.291C139.93 200 143.348 197.736 145.228 195.838C149.751 191.248 149.671 184.784 149.616 180.506L149.58 174.634C149.555 170.398 149.512 164.954 149.946 161.854C153.138 162.677 156.233 163.099 159.175 163.099C167.323 163.099 186.537 159.522 188.899 126.478L191.462 93.9949L191.481 93.6531C192.329 69.098 183.655 46.1184 167.06 28.9367ZM175.672 92.932L173.127 125.293C172.083 139.88 167.384 147.278 159.174 147.278C157.282 147.278 155.164 146.93 152.808 146.228C147.181 144.604 142.304 145.691 138.862 149.157C133.625 154.431 133.68 162.952 133.765 174.743L133.796 180.712C133.808 181.689 133.826 183.13 133.741 184.179H117.041V164.642H104.383V184.18H87.6102V164.642H74.9574V184.18H58.252C58.1727 183.13 58.191 181.689 58.2031 180.701L58.2336 174.725C58.3191 162.946 58.3738 154.431 53.1371 149.158C49.7129 145.703 44.9523 144.568 39.1234 146.246C36.8348 146.93 34.7168 147.278 32.8246 147.278C24.6094 147.278 19.9219 139.88 18.8719 125.232L16.3207 92.932C15.6738 72.7723 22.766 53.9551 36.3219 39.9289C51.1238 24.6094 72.877 15.8203 95.9969 15.8203C119.123 15.8203 140.876 24.6094 155.677 39.9293C169.233 53.9551 176.331 72.7723 175.672 92.932Z" fill="#D12D1E"/>
<path d="M96.0031 120.959C92.2066 120.959 83.8449 139.197 82.3191 142.236C80.8055 145.276 83.8449 149.841 88.4043 148.316C92.9637 146.802 96.0031 143 96.0031 143C96.0031 143 99.0426 146.802 103.602 148.316C108.155 149.841 111.201 145.276 109.681 142.236C108.155 139.197 99.8055 120.959 96.0031 120.959Z" fill="#D12D1E"/>
<path d="M63.0258 71.5941C50.959 70.3246 40.1437 79.0895 38.8742 91.1621L37.2383 102.655C35.9687 114.734 44.7336 125.537 56.8 126.807C68.8789 128.076 79.6941 119.318 80.9578 107.239L82.5937 95.7457C83.857 83.6672 75.1047 72.8637 63.0258 71.5941Z" fill="#D12D1E"/>
<path d="M153.126 91.1621C151.862 79.0895 141.041 70.3246 128.974 71.5941C116.895 72.8637 108.143 83.6668 109.406 95.7457L111.036 107.239C112.305 119.318 123.121 128.076 135.194 126.807C147.266 125.537 156.031 114.734 154.762 102.655L153.126 91.1621Z" fill="#D12D1E"/>
</svg>
